<svg id="svg" xmlns="http://www.w3.org/2000/svg" xmlns:xlink="http://www.w3.org/1999/xlink" width="400" height="358.6206896551724" viewBox="0, 0, 400,358.6206896551724"><g id="svgg"><path id="path0" d="M118.297 4.892 C 119.988 9.965,140.586 10.284,144.721 5.301 C 147.165 2.357,143.933 1.275,132.551 1.228 C 122.952 1.188,117.527 2.582,118.297 4.892 M153.384 11.207 C 155.134 20.092,154.766 21.342,151.608 17.241 C 148.233 12.859,147.938 13.033,149.675 18.385 C 150.802 21.860,151.748 26.515,151.777 28.730 C 151.808 31.113,153.339 30.645,155.524 27.586 C 158.503 23.416,158.895 23.895,157.549 30.055 C 156.539 34.678,157.442 37.401,159.836 36.951 C 162.013 36.542,163.301 39.078,162.700 42.587 C 161.958 46.925,162.973 48.124,165.873 46.332 C 168.872 44.478,169.464 45.452,167.867 49.613 C 166.615 52.875,167.015 54.654,168.757 53.577 C 172.312 51.380,177.625 64.903,174.453 68.076 C 173.331 69.197,172.414 68.520,172.414 66.570 C 172.414 62.269,155.431 64.909,148.476 70.290 C 144.682 73.226,144.118 73.116,146.093 69.828 C 147.937 66.759,145.680 65.517,138.255 65.517 C 132.520 65.517,120.610 63.067,111.788 60.072 C 102.966 57.077,91.920 55.587,87.241 56.762 C 80.884 58.357,79.382 57.772,81.302 54.449 C 82.715 52.002,80.050 53.471,75.381 57.714 C 68.678 63.805,67.189 67.977,68.306 77.542 C 69.172 84.965,68.239 89.655,65.895 89.655 C 63.790 89.655,62.069 94.402,62.069 100.204 C 62.069 106.528,60.654 109.877,58.535 108.568 C 56.592 107.367,55.428 108.439,55.949 110.951 C 56.470 113.462,55.281 115.237,53.307 114.895 C 51.202 114.531,50.269 119.000,51.050 125.695 C 51.784 131.977,50.701 138.156,48.645 139.427 C 46.233 140.918,45.699 139.534,47.141 135.524 C 48.369 132.106,48.247 130.320,46.869 131.554 C 45.491 132.788,43.958 140.984,43.462 149.767 C 42.881 160.057,43.673 164.165,45.688 161.317 C 47.688 158.490,48.047 160.625,46.683 167.241 C 45.510 172.931,44.742 179.526,44.976 181.897 C 45.211 184.267,45.661 193.041,45.977 201.395 C 46.293 209.748,47.604 215.933,48.890 215.138 C 53.557 212.253,55.477 227.659,52.012 240.205 C 48.373 253.384,49.280 256.897,56.322 256.897 C 58.534 256.897,60.380 259.224,60.422 262.069 C 60.468 265.138,63.035 266.803,66.734 266.164 C 76.511 264.476,88.658 274.462,93.063 287.809 C 99.355 306.873,108.305 304.170,105.297 284.115 C 103.809 274.190,104.163 269.000,106.241 270.284 C 108.070 271.415,109.353 269.641,109.093 266.342 C 108.833 263.044,110.401 260.680,112.577 261.089 C 114.922 261.530,115.812 259.071,114.761 255.055 C 113.100 248.700,114.860 248.276,142.905 248.276 C 159.359 248.276,172.022 249.569,171.045 251.149 C 170.068 252.730,164.158 253.543,157.910 252.958 C 148.156 252.043,147.769 252.267,155.172 254.546 C 163.669 257.161,171.335 282.374,166.272 291.050 C 165.271 292.765,166.243 293.062,168.433 291.709 C 172.833 288.989,173.922 293.894,169.828 297.989 C 166.452 301.364,166.452 320.519,169.828 318.433 C 171.250 317.554,172.608 318.478,172.845 320.486 C 173.082 322.495,173.470 325.560,173.707 327.299 C 173.944 329.037,175.551 331.753,177.277 333.333 C 179.135 335.035,179.270 334.231,177.606 331.364 C 175.716 328.106,176.099 327.326,178.778 328.981 C 180.967 330.334,182.759 333.678,182.759 336.410 C 182.759 343.941,193.494 342.355,195.542 334.522 C 196.529 330.750,198.379 328.308,199.653 329.096 C 200.928 329.884,202.003 327.927,202.043 324.747 C 202.082 321.567,203.238 314.310,204.610 308.621 C 206.417 301.132,206.140 299.704,203.606 303.448 C 200.752 307.665,200.096 307.149,200.053 300.659 C 200.024 296.279,201.271 293.482,202.824 294.442 C 204.378 295.402,205.359 292.002,205.004 286.887 C 204.650 281.771,204.984 279.914,205.747 282.759 C 206.846 286.854,211.893 287.685,229.980 286.750 C 245.076 285.970,251.176 284.526,247.964 282.493 C 242.646 279.126,243.205 278.944,263.109 277.558 C 268.422 277.188,274.629 274.913,276.902 272.503 C 280.232 268.972,279.528 268.897,273.276 272.113 C 269.009 274.308,265.517 275.314,265.517 274.348 C 265.517 273.382,270.343 270.095,276.242 267.045 C 283.121 263.488,286.021 263.029,284.330 265.765 C 282.494 268.735,283.165 269.189,286.536 267.261 C 298.075 260.662,306.281 250.685,304.337 245.619 C 302.989 242.106,303.658 241.102,306.271 242.717 C 308.821 244.293,309.572 243.377,308.346 240.183 C 307.290 237.432,308.324 234.008,310.643 232.575 C 313.568 230.767,313.998 231.452,312.049 234.812 C 310.385 237.679,310.520 238.483,312.378 236.782 C 314.105 235.201,315.588 232.098,315.674 229.885 C 315.760 227.672,317.815 226.288,320.241 226.810 C 322.666 227.331,323.613 226.079,322.345 224.027 C 319.467 219.370,323.418 202.596,326.889 204.741 C 328.290 205.608,328.838 200.036,328.106 192.359 C 327.374 184.683,328.121 179.231,329.767 180.243 C 331.412 181.256,332.704 171.762,332.636 159.145 C 332.569 146.529,333.571 131.156,334.864 124.982 C 336.263 118.296,335.748 112.851,333.591 111.518 C 331.356 110.137,330.931 111.135,332.482 114.122 C 333.864 116.786,332.716 116.178,329.931 112.771 C 324.985 106.720,325.838 91.616,330.946 94.773 C 335.029 97.296,329.007 69.660,324.216 63.888 C 321.841 61.026,320.571 54.096,321.394 48.490 C 322.217 42.883,322.007 38.701,320.928 39.198 C 319.849 39.694,315.663 36.640,311.626 32.411 C 304.615 25.067,304.577 24.647,310.769 23.028 C 314.334 22.096,316.381 22.740,315.318 24.460 C 314.256 26.179,314.292 27.586,315.399 27.586 C 316.506 27.586,318.891 23.696,320.699 18.940 C 322.507 14.185,325.868 10.694,328.168 11.182 C 330.467 11.670,332.816 8.966,333.387 5.172 L 334.424 -1.724 331.248 5.172 C 328.390 11.377,328.047 11.441,327.829 5.816 C 327.603 0.009,323.604 -0.377,271.706 0.408 C 240.971 0.872,217.705 1.879,220.003 2.645 C 222.301 3.411,223.365 5.357,222.369 6.969 C 221.372 8.582,225.157 8.582,230.779 6.970 C 237.750 4.970,241.610 5.315,242.914 8.054 C 244.328 11.021,245.352 10.944,246.839 7.759 C 247.945 5.388,251.140 3.448,253.939 3.448 C 256.738 3.448,258.069 5.000,256.897 6.897 C 253.886 11.767,259.844 11.191,264.914 6.121 C 268.247 2.788,270.564 2.788,275.901 6.121 C 279.621 8.444,284.626 10.321,287.022 10.292 C 289.989 10.256,289.729 9.173,286.207 6.897 C 282.590 4.559,282.363 3.538,285.453 3.501 C 287.883 3.472,290.706 5.623,291.726 8.281 C 293.288 12.352,297.949 12.993,306.897 10.366 C 307.845 10.088,305.517 8.602,301.724 7.064 C 296.496 4.945,297.971 4.335,307.818 4.543 C 318.678 4.773,325.465 11.781,315.230 12.198 C 313.491 12.268,303.332 15.138,292.654 18.574 C 277.433 23.473,271.661 23.977,265.930 20.911 C 261.112 18.332,258.621 18.215,258.621 20.568 C 258.621 22.532,255.426 24.138,251.521 24.138 C 247.616 24.138,245.369 22.604,246.527 20.729 C 247.735 18.774,246.351 18.196,243.283 19.374 C 240.339 20.503,237.907 23.201,237.878 25.369 C 237.849 27.537,236.321 26.983,234.483 24.138 C 231.511 19.540,231.128 19.540,231.034 24.138 C 230.941 28.736,230.552 28.736,227.533 24.138 C 224.685 19.799,223.644 19.731,221.075 23.718 C 217.494 29.274,210.345 25.972,210.345 18.762 C 210.345 12.659,204.668 12.195,202.284 18.103 C 201.327 20.474,200.422 18.276,200.272 13.218 C 200.123 8.161,201.940 3.240,204.310 2.284 C 206.681 1.327,204.431 0.422,199.309 0.272 C 193.857 0.113,188.541 2.501,186.483 6.034 C 183.136 11.782,182.963 11.782,182.863 6.034 C 182.720 -2.210,177.085 -1.599,174.862 6.901 C 173.869 10.697,174.301 13.034,175.822 12.094 C 179.534 9.800,183.374 20.352,180.513 24.982 C 179.072 27.313,179.911 27.622,182.812 25.829 C 186.156 23.763,186.771 24.591,185.108 28.924 C 183.859 32.178,184.209 33.993,185.885 32.958 C 187.561 31.922,189.853 33.473,190.978 36.406 C 192.137 39.425,191.563 40.834,189.655 39.655 C 187.747 38.476,187.173 39.886,188.332 42.905 C 189.457 45.837,191.655 47.447,193.217 46.482 C 197.824 43.634,201.052 58.948,196.751 63.249 C 193.804 66.196,192.000 65.893,189.564 62.040 C 186.686 57.488,186.294 57.491,186.155 62.069 C 186.034 66.042,185.155 65.793,182.365 60.997 C 180.368 57.563,179.621 52.440,180.706 49.611 C 181.978 46.297,181.260 45.347,178.685 46.938 C 176.033 48.577,175.416 47.516,176.850 43.780 C 178.037 40.684,177.285 37.087,175.179 35.785 C 172.698 34.251,172.331 35.008,174.138 37.931 C 175.972 40.899,175.580 41.612,172.992 40.012 C 170.827 38.675,166.598 29.125,163.594 18.790 C 157.671 -1.585,149.698 -7.507,153.384 11.207 M212.718 33.550 C 220.170 34.988,235.988 34.494,251.724 32.331 L 267.241 30.197 260.672 37.512 C 257.060 41.536,251.739 44.828,248.848 44.828 C 245.958 44.828,238.377 46.714,232.003 49.019 C 223.190 52.206,218.883 52.255,214.031 49.225 C 208.467 45.750,207.827 46.206,209.034 52.792 C 209.860 57.305,208.286 55.758,205.122 48.949 C 202.209 42.682,200.881 35.847,202.170 33.761 C 203.527 31.565,202.938 30.943,200.771 32.282 C 198.713 33.554,196.126 33.136,195.024 31.352 C 193.921 29.568,195.754 27.550,199.096 26.868 C 202.438 26.186,205.948 27.232,206.897 29.193 C 207.845 31.154,210.464 33.115,212.718 33.550 M238.031 37.796 C 235.241 39.561,233.803 41.849,234.834 42.880 C 235.866 43.912,239.701 42.494,243.355 39.729 C 250.625 34.229,246.208 32.625,238.031 37.796 M310.461 41.596 C 312.554 45.508,313.938 52.879,313.535 57.975 C 313.133 63.072,313.711 69.569,314.820 72.414 C 315.930 75.259,317.524 80.690,318.364 84.483 C 319.569 89.932,319.974 89.534,320.290 82.586 C 320.510 77.750,318.750 71.618,316.379 68.959 C 312.712 64.847,312.970 64.807,318.103 68.692 C 325.508 74.295,325.675 80.984,318.889 100.218 C 316.001 108.401,314.684 114.051,315.961 112.774 C 325.470 103.266,329.601 166.108,320.576 182.971 C 318.875 186.149,318.347 189.611,319.402 190.666 C 322.328 193.592,317.150 207.247,313.881 205.227 C 312.305 204.253,309.376 208.163,307.371 213.915 C 305.209 220.116,305.072 223.541,307.035 222.328 C 308.855 221.203,310.467 217.659,310.617 214.452 C 310.799 210.552,311.488 210.115,312.695 213.131 C 314.818 218.432,303.879 231.708,299.579 229.050 C 297.957 228.048,297.585 229.715,298.752 232.755 C 301.753 240.578,287.778 254.531,267.241 264.216 C 239.380 277.355,194.217 274.050,199.205 259.237 C 200.314 255.941,197.609 254.987,189.428 255.788 C 183.207 256.398,177.726 258.875,177.248 261.293 C 176.770 263.711,177.168 264.099,178.132 262.155 C 183.605 251.120,194.843 258.929,195.739 274.389 C 196.373 285.319,195.470 289.394,192.784 287.733 C 190.261 286.174,189.555 287.591,190.752 291.810 C 196.347 311.510,196.629 319.781,191.843 323.753 C 184.121 330.161,175.214 315.947,179.646 304.289 C 182.079 297.891,181.563 293.517,177.678 287.587 C 171.313 277.873,170.795 260.741,176.724 256.069 C 186.497 248.367,233.798 247.912,229.068 255.564 C 228.029 257.245,229.690 258.621,232.759 258.621 C 235.833 258.621,237.317 256.969,236.064 254.942 C 234.814 252.918,235.886 251.611,238.447 252.037 C 250.817 254.095,262.585 239.072,270.788 210.751 C 272.614 204.449,273.859 203.646,276.136 207.303 C 278.287 210.756,279.723 208.998,281.351 200.918 C 282.587 194.785,284.943 190.598,286.587 191.614 C 288.231 192.630,288.712 191.210,287.656 188.459 C 286.601 185.707,287.634 182.284,289.953 180.850 C 292.827 179.074,293.281 179.682,291.379 182.759 C 289.655 185.549,289.944 186.435,292.137 185.080 C 294.464 183.642,294.640 177.293,292.650 166.638 C 289.362 149.042,291.477 136.519,297.144 140.021 C 299.385 141.406,299.298 139.615,296.908 135.149 C 294.829 131.264,294.045 125.258,295.165 121.802 C 296.862 116.566,296.581 116.381,293.482 120.690 C 290.525 124.800,289.750 123.519,289.708 114.452 C 289.679 108.176,291.100 103.934,292.865 105.025 C 294.631 106.116,297.207 105.044,298.590 102.642 C 300.059 100.093,299.799 99.482,297.967 101.172 C 296.157 102.842,292.994 98.461,290.498 90.828 C 287.342 81.173,286.525 80.226,287.484 87.330 C 288.333 93.623,287.614 95.890,285.455 93.731 C 279.755 88.030,284.064 78.330,292.894 76.986 C 311.373 74.174,306.546 68.835,283.966 67.113 C 273.374 66.306,269.158 66.953,272.313 68.903 C 275.032 70.584,278.735 71.046,280.541 69.929 C 282.347 68.813,282.701 69.717,281.329 71.937 C 279.957 74.158,277.154 74.936,275.101 73.667 C 273.047 72.398,269.275 74.221,266.718 77.718 C 263.297 82.398,262.055 82.765,262.016 79.107 C 261.972 74.914,261.433 74.946,258.568 79.310 C 256.034 83.170,254.493 83.435,252.495 80.354 C 250.730 77.633,248.087 77.321,244.737 79.440 C 241.942 81.207,235.776 82.831,231.034 83.050 L 222.414 83.446 231.034 86.207 L 239.655 88.968 230.172 89.311 C 224.957 89.500,220.666 91.595,220.637 93.966 C 220.597 97.218,219.873 97.155,217.690 93.711 C 215.352 90.023,213.704 90.236,209.122 94.819 C 206.001 97.940,203.448 98.830,203.448 96.798 C 203.448 94.766,201.897 93.103,200.000 93.103 C 198.103 93.103,196.528 96.595,196.499 100.862 C 196.456 107.136,195.806 107.631,193.103 103.448 C 190.505 99.427,189.749 99.322,189.708 102.978 C 189.671 106.249,186.461 107.211,179.159 106.139 C 173.385 105.291,167.715 106.131,166.557 108.004 C 165.318 110.008,166.445 110.376,169.295 108.898 C 171.959 107.516,171.126 108.828,167.444 111.813 C 159.669 118.119,156.407 118.580,153.448 113.793 C 152.276 111.897,145.383 110.345,138.130 110.345 C 127.842 110.345,124.546 108.828,123.139 103.448 C 121.943 98.877,118.610 96.668,113.254 96.895 L 105.172 97.239 113.793 100.000 L 122.414 102.761 112.931 103.105 C 107.716 103.294,103.448 105.092,103.448 107.100 C 103.448 109.109,102.194 109.977,100.662 109.030 C 99.130 108.083,97.500 113.034,97.041 120.033 C 95.719 140.203,91.121 156.962,87.132 156.152 C 84.988 155.717,84.276 158.504,85.416 162.864 C 87.288 170.024,87.473 170.054,90.082 163.608 C 91.627 159.792,91.907 163.370,90.730 171.903 C 89.299 182.286,90.024 187.752,93.083 189.643 C 95.515 191.146,97.678 197.042,97.890 202.745 C 98.102 208.449,99.703 212.237,101.448 211.164 C 103.202 210.085,103.605 211.858,102.350 215.131 C 101.101 218.385,101.450 220.200,103.126 219.164 C 112.801 213.185,112.261 241.543,102.346 260.170 C 95.068 273.842,93.984 274.616,90.327 268.760 C 87.088 263.573,87.234 262.679,91.081 264.156 C 93.706 265.163,96.637 264.718,97.594 263.166 C 98.551 261.614,92.505 260.271,84.159 260.181 C 65.081 259.976,61.529 256.356,60.056 235.620 C 59.405 226.460,57.857 212.166,56.617 203.856 C 54.862 192.099,55.335 189.348,58.748 191.458 C 61.632 193.241,62.280 192.786,60.639 190.132 C 59.267 187.911,56.700 186.987,54.934 188.078 C 53.169 189.169,51.724 186.959,51.724 183.166 C 51.724 179.373,53.516 175.162,55.705 173.809 C 58.383 172.153,58.767 172.933,56.876 176.191 C 55.331 178.855,55.348 179.873,56.913 178.454 C 58.478 177.034,60.213 171.619,60.767 166.419 C 61.415 160.344,60.758 158.610,58.930 161.569 C 56.877 164.890,55.424 163.541,53.713 156.725 C 52.371 151.378,52.922 145.699,54.982 143.639 C 56.983 141.638,58.621 135.845,58.621 130.767 C 58.621 125.689,60.948 119.602,63.793 117.241 C 66.638 114.880,68.966 109.259,68.966 104.750 C 68.966 100.241,70.517 96.552,72.414 96.552 C 74.310 96.552,75.862 91.029,75.862 84.279 C 75.862 77.529,77.307 72.900,79.072 73.991 C 80.838 75.082,83.405 74.158,84.777 71.937 C 86.336 69.416,85.778 68.824,83.291 70.360 C 81.102 71.714,79.310 71.344,79.310 69.538 C 79.310 62.992,101.218 59.118,104.865 65.019 C 105.867 66.642,102.468 67.393,97.309 66.688 C 92.151 65.983,94.914 67.736,103.448 70.582 C 121.524 76.611,124.358 76.996,117.241 72.459 C 113.726 70.218,116.489 69.853,125.862 71.321 C 133.448 72.508,140.718 75.108,142.017 77.098 C 143.624 79.560,147.073 79.274,152.813 76.202 C 162.365 71.090,180.405 74.316,172.007 79.635 C 166.485 83.132,169.388 83.703,177.284 80.673 C 180.273 79.526,181.654 76.811,180.353 74.639 C 179.051 72.467,180.910 73.017,184.483 75.862 C 188.269 78.877,189.899 79.236,188.389 76.724 C 185.256 71.508,190.297 70.987,195.319 76.008 C 197.812 78.502,200.399 77.710,203.767 73.422 C 208.280 67.675,208.136 67.593,201.724 72.247 C 197.056 75.636,196.144 75.768,198.902 72.656 C 201.143 70.127,209.429 67.477,217.315 66.766 C 229.996 65.624,252.565 55.172,242.350 55.172 C 240.143 55.172,237.490 56.545,236.453 58.223 C 235.416 59.901,229.975 61.948,224.362 62.772 C 218.750 63.595,214.943 62.998,215.903 61.445 C 216.863 59.892,221.345 58.621,225.862 58.621 C 230.380 58.621,235.035 57.069,236.207 55.172 C 237.379 53.276,243.573 51.724,249.971 51.724 C 258.366 51.724,262.182 49.903,263.681 45.182 C 265.146 40.564,268.005 39.130,273.396 40.308 C 279.554 41.654,280.032 41.262,275.862 38.283 C 271.917 35.465,274.956 34.576,288.672 34.536 C 303.339 34.492,307.356 35.794,310.461 41.596 M282.707 116.176 C 282.735 122.228,284.315 128.141,286.216 129.316 C 288.503 130.729,288.415 133.805,285.957 138.398 C 283.822 142.387,283.218 151.136,284.538 158.948 C 286.480 170.444,285.225 175.081,276.438 188.863 C 270.719 197.833,263.376 211.893,260.120 220.107 C 256.699 228.738,253.185 233.399,251.796 231.150 C 250.144 228.478,247.868 229.137,244.523 233.257 C 240.285 238.479,240.324 238.883,244.828 236.383 C 248.818 234.167,248.706 234.888,244.338 239.536 C 239.856 244.305,235.685 245.054,224.316 243.133 L 209.955 240.707 223.937 233.789 C 242.440 224.635,256.213 208.137,254.190 197.552 C 253.335 193.077,253.410 190.191,254.357 191.139 C 255.304 192.086,259.166 191.209,262.938 189.190 C 267.884 186.543,269.144 186.577,267.454 189.311 C 266.165 191.397,266.754 193.103,268.762 193.103 C 272.026 193.103,273.769 188.557,272.932 182.227 C 272.768 180.987,274.912 178.081,277.696 175.771 C 285.011 169.700,283.933 160.551,274.589 149.403 C 268.473 142.105,266.839 136.831,268.089 128.417 C 269.077 121.760,267.839 114.731,265.051 111.175 C 260.703 105.629,260.869 105.558,267.241 110.240 C 272.788 114.316,272.582 113.559,266.192 106.371 C 258.369 97.570,263.189 89.126,272.685 94.995 C 274.389 96.048,274.881 94.560,273.779 91.688 C 272.007 87.069,270.797 87.107,263.297 92.022 C 256.913 96.204,253.840 96.598,250.857 93.616 C 247.875 90.634,249.092 89.655,255.785 89.655 C 260.673 89.655,266.666 87.253,269.103 84.317 C 274.396 77.939,282.617 97.193,282.707 116.176 M251.895 98.364 C 257.491 101.258,262.069 104.416,262.069 105.382 C 262.069 106.349,259.068 105.533,255.399 103.570 C 251.731 101.606,244.360 99.976,239.020 99.947 C 231.484 99.906,230.468 99.146,234.483 96.552 C 241.045 92.311,239.973 92.199,251.895 98.364 M256.650 112.315 C 262.377 118.042,264.014 132.873,259.245 135.821 C 257.691 136.781,257.065 133.177,257.852 127.812 C 258.639 122.448,257.680 117.067,255.719 115.855 C 253.479 114.471,252.760 116.989,253.784 122.635 C 255.073 129.745,253.809 132.037,247.719 133.629 C 240.699 135.465,240.587 135.839,246.445 137.893 C 250.420 139.288,238.533 142.880,215.225 147.327 C 162.024 157.479,144.040 166.697,158.980 176.157 C 166.230 180.747,168.971 179.952,168.913 173.276 C 168.868 168.119,168.374 167.993,165.517 172.414 C 162.609 176.914,162.168 176.856,162.122 171.971 C 162.069 166.374,205.345 152.472,209.594 156.720 C 210.606 157.733,213.343 156.977,215.677 155.040 C 222.291 149.551,247.745 155.171,258.941 164.592 C 266.214 170.711,268.966 171.639,268.966 167.970 C 268.966 165.189,266.655 160.996,263.831 158.652 C 261.007 156.309,259.650 152.849,260.815 150.964 C 262.125 148.845,259.808 148.399,254.742 149.795 C 247.436 151.810,247.246 151.621,252.979 148.049 C 261.937 142.469,277.724 157.667,274.271 168.547 C 271.448 177.442,267.522 177.775,259.195 169.828 C 246.586 157.792,215.649 156.832,194.456 167.820 C 187.074 171.647,179.046 174.101,176.616 173.273 C 174.186 172.445,172.635 173.852,173.168 176.401 C 173.852 179.670,170.075 181.034,160.345 181.034 C 148.410 181.034,146.394 179.920,145.382 172.761 C 144.056 163.375,151.004 148.256,156.617 148.315 C 158.667 148.336,175.586 142.602,194.214 135.572 C 223.239 124.618,229.086 123.416,235.092 127.167 C 240.844 130.759,241.636 130.725,239.510 126.979 C 237.426 123.306,237.827 123.256,241.563 126.724 C 248.655 133.307,252.409 131.860,248.276 124.138 C 245.895 119.690,241.056 117.241,234.643 117.241 C 218.333 117.241,210.069 112.944,220.690 109.985 C 235.874 105.756,251.076 106.741,256.650 112.315 M110.518 115.309 C 108.252 118.039,107.054 124.634,107.855 129.964 C 109.249 139.242,109.334 139.177,109.828 128.448 C 110.180 120.818,112.060 117.241,115.721 117.241 C 118.906 117.241,120.094 115.619,118.636 113.260 C 117.112 110.794,117.690 110.215,120.157 111.740 C 122.346 113.093,124.138 119.683,124.138 126.384 C 124.138 139.180,134.714 156.520,140.009 152.405 C 141.711 151.082,141.940 151.474,140.517 153.276 C 139.095 155.078,137.931 162.258,137.931 169.233 C 137.931 177.272,135.722 183.586,131.897 186.480 C 126.763 190.365,126.505 190.325,130.172 186.213 C 132.543 183.554,134.460 178.974,134.432 176.034 C 134.401 172.810,132.568 174.109,129.809 179.310 C 127.295 184.052,125.378 193.603,125.550 200.535 C 125.722 207.468,124.698 212.419,123.276 211.539 C 121.853 210.658,120.690 211.473,120.690 213.350 C 120.690 215.226,124.181 217.461,128.448 218.315 C 133.404 219.308,132.258 219.760,125.277 219.567 C 106.270 219.042,95.456 189.796,100.138 151.581 C 104.367 117.066,106.138 110.345,110.999 110.345 C 113.328 110.345,113.155 112.131,110.518 115.309 M231.897 112.722 C 235.216 113.589,240.647 113.589,243.966 112.722 C 247.284 111.854,244.569 111.145,237.931 111.145 C 231.293 111.145,228.578 111.854,231.897 112.722 M213.793 117.241 C 219.288 120.793,213.067 122.468,198.938 121.241 C 195.508 120.944,193.560 122.087,194.607 123.782 C 197.216 128.002,187.513 131.319,180.469 128.616 C 176.806 127.211,175.570 127.773,177.052 130.171 C 179.877 134.740,158.634 142.349,147.474 140.765 C 142.295 140.030,139.266 136.901,138.501 131.499 C 136.646 118.388,143.423 114.719,152.954 123.674 L 161.172 131.394 181.448 122.894 C 204.857 113.081,206.823 112.737,213.793 117.241 M135.627 144.814 C 139.136 149.331,138.877 149.390,133.621 145.267 C 129.611 142.123,127.771 136.337,128.138 128.026 L 128.690 115.517 130.144 127.572 C 130.944 134.203,133.411 141.961,135.627 144.814 M272.656 126.724 C 272.871 135.127,273.236 135.422,275.862 129.310 C 279.909 119.892,279.909 117.241,275.862 117.241 C 273.966 117.241,272.523 121.509,272.656 126.724 M88.357 136.340 C 87.174 139.422,86.340 144.532,86.503 147.696 C 86.666 150.860,88.167 148.871,89.838 143.277 C 93.088 132.393,91.939 127.007,88.357 136.340 M167.241 149.204 C 151.758 154.362,148.230 158.373,148.730 170.250 L 149.184 181.034 151.724 168.966 C 153.121 162.328,154.469 158.250,154.718 159.905 C 154.968 161.560,157.401 161.064,160.124 158.804 C 162.848 156.543,169.381 153.543,174.641 152.136 C 179.902 150.729,182.717 148.718,180.896 147.668 C 179.076 146.618,172.931 147.309,167.241 149.204 M318.041 165.517 C 318.041 172.155,318.751 174.871,319.618 171.552 C 320.486 168.233,320.486 162.802,319.618 159.483 C 318.751 156.164,318.041 158.879,318.041 165.517 M184.576 165.367 C 183.455 167.180,179.872 167.810,176.614 166.765 C 171.771 165.213,171.600 165.511,175.676 168.400 C 180.247 171.638,193.103 168.150,193.103 163.672 C 193.103 160.736,186.644 162.020,184.576 165.367 M251.724 174.138 L 263.409 182.759 239.463 182.775 C 221.901 182.786,210.001 185.063,194.828 191.313 C 174.001 199.893,149.449 203.022,153.424 196.591 C 154.613 194.668,153.294 194.041,150.397 195.152 C 136.585 200.453,158.603 211.184,174.138 206.723 C 176.034 206.179,181.067 205.830,185.322 205.949 C 189.577 206.067,192.201 204.777,191.153 203.082 C 190.105 201.387,189.926 200.000,190.755 200.000 C 191.583 200.000,198.023 197.593,205.064 194.651 C 212.106 191.708,216.859 190.933,215.627 192.926 C 212.570 197.873,219.263 197.494,227.738 192.241 C 233.471 188.689,235.271 188.840,237.983 193.103 C 240.908 197.701,241.285 197.701,241.379 193.103 C 241.489 187.709,248.094 194.941,248.223 200.597 C 248.370 207.076,230.237 223.615,225.134 221.657 C 221.443 220.241,220.393 220.868,222.027 223.512 C 223.638 226.119,222.644 226.796,219.164 225.461 C 216.232 224.336,214.839 221.786,216.070 219.796 C 217.408 217.630,216.641 217.206,214.158 218.740 C 211.084 220.640,211.007 222.505,213.860 225.942 C 216.914 229.623,214.990 231.419,204.544 234.638 C 185.752 240.429,124.138 243.260,124.138 238.332 C 124.138 236.215,127.629 234.328,131.897 234.139 C 139.288 233.812,139.247 233.676,131.034 231.286 C 125.558 229.692,131.481 228.821,147.272 228.898 C 175.131 229.035,176.023 229.523,156.692 234.054 L 143.103 237.238 161.410 237.585 C 174.034 237.824,178.982 236.741,177.348 234.097 C 174.339 229.229,182.040 224.259,192.696 224.191 C 203.214 224.123,224.138 211.279,224.138 204.891 C 224.138 198.641,223.333 198.708,196.552 207.176 C 160.486 218.578,131.034 217.001,131.034 203.667 C 131.034 193.486,139.492 189.325,162.664 188.104 C 178.231 187.284,190.905 183.885,206.897 176.239 C 233.976 163.292,236.841 163.158,251.724 174.138 M203.448 181.034 C 194.914 185.604,189.483 189.359,191.379 189.377 C 193.276 189.396,198.707 187.193,203.448 184.483 C 208.190 181.772,215.652 179.500,220.031 179.433 C 224.439 179.365,227.042 177.771,225.862 175.862 C 222.937 171.130,221.194 171.532,203.448 181.034 M239.655 175.862 C 238.483 177.759,240.811 179.310,244.828 179.310 C 248.845 179.310,251.172 177.759,250.000 175.862 C 248.828 173.966,246.500 172.414,244.828 172.414 C 243.155 172.414,240.827 173.966,239.655 175.862 M138.621 193.793 C 133.600 198.814,133.259 205.733,137.892 208.596 C 139.852 209.808,140.421 208.411,139.230 205.308 C 138.091 202.340,139.075 197.604,141.416 194.784 C 146.507 188.649,144.482 187.932,138.621 193.793 M167.241 193.103 L 160.345 196.067 167.241 196.067 C 171.034 196.067,177.241 194.733,181.034 193.103 L 187.931 190.140 181.034 190.140 C 177.241 190.140,171.034 191.473,167.241 193.103 M248.461 218.166 C 241.925 226.192,239.597 230.154,243.289 226.970 C 246.980 223.786,251.440 221.458,253.200 221.797 C 254.960 222.136,257.542 218.147,258.936 212.931 C 260.331 207.716,261.219 203.476,260.909 203.510 C 260.599 203.545,254.997 210.139,248.461 218.166 M104.248 234.483 C 104.248 241.121,104.958 243.836,105.825 240.517 C 106.693 237.198,106.693 231.767,105.825 228.448 C 104.958 225.129,104.248 227.845,104.248 234.483 M227.586 236.207 C 223.970 240.564,224.583 241.336,231.474 241.107 C 235.974 240.957,237.706 240.049,235.323 239.088 C 232.941 238.128,231.869 235.923,232.941 234.188 C 236.069 229.127,232.275 230.557,227.586 236.207 M279.464 250.429 C 263.244 261.944,261.817 263.950,274.389 257.562 C 280.217 254.601,287.002 249.749,289.466 246.779 C 295.343 239.699,293.770 240.273,279.464 250.429 M159.421 268.966 C 159.421 275.603,160.130 278.319,160.998 275.000 C 161.865 271.681,161.865 266.250,160.998 262.931 C 160.130 259.612,159.421 262.328,159.421 268.966 M233.661 267.956 C 237.950 268.781,244.157 268.750,247.454 267.886 C 250.751 267.023,247.241 266.349,239.655 266.387 C 232.069 266.425,229.372 267.131,233.661 267.956 M235.392 281.738 C 231.151 282.556,223.392 282.577,218.151 281.785 C 212.909 280.992,216.379 280.322,225.862 280.297 C 235.345 280.271,239.633 280.919,235.392 281.738 M185.162 297.907 C 183.751 301.498,183.409 305.248,184.402 306.241 C 187.547 309.386,190.314 304.232,188.996 297.684 C 187.788 291.683,187.604 291.693,185.162 297.907 " stroke="none" fill="#7356a4" fill-rule="evenodd"></path></g></svg>